<svg width="29" height="23" viewBox="0 0 29 23" fill="none" xmlns="http://www.w3.org/2000/svg">
<path d="M2.27723 1.5137C6.63649 1.35063 11.0966 2.22312 14.9956 4.20763C16.7025 5.07783 18.2608 6.29118 19.2381 7.96721C20.1957 9.61136 20.6481 11.489 20.7734 13.3751C20.9479 15.9759 20.4913 18.5882 20.065 21.1429C20.0101 21.4768 20.3132 21.7925 20.6319 21.821C20.9905 21.853 21.2551 21.588 21.31 21.254C22.0392 16.8816 22.7435 12.1404 20.6779 8.00538C18.6889 4.02527 14.2724 2.13011 10.1704 1.09882C7.62709 0.460171 5.01239 0.171562 2.39086 0.268873C2.05092 0.281198 1.74295 0.469563 1.71028 0.835608C1.68316 1.1394 1.93729 1.52603 2.27723 1.5137Z" fill="#233869"/>
<path d="M20.9724 20.5937C19.0762 18.414 17.1825 16.2345 15.286 14.0573C14.7579 13.4504 13.7979 14.2508 14.3259 14.8601C16.2223 17.0373 18.1162 19.2143 20.0125 21.3941C20.5406 22.0009 21.5005 21.2006 20.9724 20.5937Z" fill="#233869"/>
<path d="M21.2462 21.6905C23.3678 19.6862 25.4892 17.6844 27.6108 15.6801C28.1945 15.1298 27.3944 14.1674 26.808 14.7199C24.6864 16.7242 22.565 18.7261 20.4434 20.7304C19.8619 21.2834 20.6595 22.2456 21.2462 21.6905Z" fill="#233869"/>
</svg>
