<svg width="240" height="49" viewBox="0 0 240 49" fill="none" xmlns="http://www.w3.org/2000/svg">
<path d="M121.804 16.3293C119.593 16.2761 117.444 17.0701 115.799 18.5488V12.5009C115.82 11.9681 115.733 11.4365 115.543 10.9381C115.353 10.4397 115.065 9.98465 114.696 9.60029C114.326 9.21593 113.883 8.91016 113.392 8.70129C112.901 8.49243 112.374 8.38477 111.84 8.38477C111.307 8.38477 110.779 8.49243 110.289 8.70129C109.798 8.91016 109.355 9.21593 108.985 9.60029C108.615 9.98465 108.327 10.4397 108.138 10.9381C107.948 11.4365 107.861 11.9681 107.882 12.5009V36.6926C107.881 37.5927 108.186 38.4662 108.748 39.1694C109.31 39.8726 110.094 40.3636 110.972 40.5615C111.851 40.7593 112.77 40.6523 113.579 40.258C114.388 39.8637 115.039 39.2056 115.424 38.3921C117.157 39.9948 119.444 40.8622 121.804 40.8113C128.929 40.8113 132.654 34.6726 132.654 28.5279C132.654 20.5265 127.193 16.3293 121.804 16.3293ZM124.738 28.5279V28.6126C124.738 31.6366 122.832 33.838 120.208 33.838C117.583 33.838 115.72 31.6366 115.72 28.5279C115.72 25.4193 117.607 23.3025 120.208 23.3025C122.808 23.3025 124.738 25.51 124.738 28.534V28.5279Z" fill="#1BB36E"/>
<path d="M153.774 16.4995C152.724 16.5011 151.717 16.919 150.975 17.6615C150.232 18.4041 149.814 19.4107 149.813 20.4609V29.8473C149.813 31.5044 149.286 33.476 146.789 33.476C144.841 33.476 143.855 32.2664 143.855 29.8473V20.4609C143.876 19.928 143.789 19.3965 143.6 18.8981C143.41 18.3996 143.122 17.9446 142.752 17.5603C142.383 17.1759 141.939 16.8701 141.449 16.6613C140.958 16.4524 140.43 16.3447 139.897 16.3447C139.364 16.3447 138.836 16.4524 138.345 16.6613C137.855 16.8701 137.411 17.1759 137.042 17.5603C136.672 17.9446 136.384 18.3996 136.194 18.8981C136.005 19.3965 135.918 19.928 135.939 20.4609V31.8128C135.939 37.3709 139.126 40.8182 144.242 40.8182C145.352 40.8321 146.453 40.6157 147.476 40.1826C148.498 39.7496 149.419 39.1093 150.181 38.3023C150.551 39.1299 151.194 39.8056 152.002 40.2167C152.81 40.6277 153.734 40.7493 154.621 40.561C155.507 40.3728 156.303 39.8862 156.874 39.1823C157.445 38.4785 157.758 37.6 157.76 36.6935V20.4609C157.759 19.9388 157.655 19.4221 157.454 18.9403C157.253 18.4584 156.959 18.021 156.589 17.653C156.219 17.2849 155.779 16.9936 155.296 16.7957C154.813 16.5978 154.296 16.4971 153.774 16.4995Z" fill="#1BB36E"/>
<path d="M181.807 8.5459C180.757 8.5475 179.751 8.96557 179.01 9.7083C178.268 10.451 177.852 11.4577 177.852 12.5073V18.4282C176.166 17.0315 174.035 16.2867 171.846 16.3296C164.722 16.3296 160.996 22.4682 160.996 28.6129C160.996 36.6204 166.439 40.8116 171.846 40.8116C173.019 40.8403 174.186 40.6305 175.275 40.1949C176.365 39.7593 177.354 39.107 178.184 38.2775C178.547 39.1133 179.187 39.7983 179.996 40.2169C180.805 40.6354 181.733 40.7619 182.625 40.5749C183.517 40.3879 184.316 39.899 184.889 39.1906C185.462 38.4822 185.772 37.5979 185.768 36.6869V12.4952C185.764 11.4472 185.344 10.4436 184.602 9.70364C183.86 8.9637 182.855 8.54749 181.807 8.5459ZM177.93 28.619C177.93 31.643 176.043 33.8444 173.443 33.8444C170.842 33.8444 168.913 31.643 168.913 28.619V28.5343C168.913 25.5103 170.818 23.3089 173.443 23.3089C176.068 23.3089 177.93 25.5103 177.93 28.619Z" fill="#1BB36E"/>
<path d="M209.742 8.5459C208.693 8.5475 207.687 8.96557 206.945 9.7083C206.204 10.451 205.787 11.4577 205.787 12.5073V18.4282C204.102 17.0305 201.97 16.2856 199.781 16.3296C192.663 16.3296 188.938 22.4682 188.938 28.6129C188.938 36.6204 194.381 40.8116 199.781 40.8116C200.954 40.8403 202.121 40.6305 203.211 40.1949C204.3 39.7593 205.29 39.107 206.12 38.2775C206.482 39.1133 207.122 39.7983 207.931 40.2169C208.74 40.6354 209.669 40.7619 210.56 40.5749C211.452 40.3879 212.252 39.899 212.824 39.1906C213.397 38.4822 213.708 37.5979 213.704 36.6869V12.4952C213.699 11.4472 213.28 10.4436 212.538 9.70364C211.795 8.9637 210.79 8.54749 209.742 8.5459ZM205.866 28.619C205.866 31.643 203.979 33.8444 201.384 33.8444C198.79 33.8444 196.854 31.643 196.854 28.619V28.5343C196.854 25.5103 198.759 23.3089 201.384 23.3089C204.009 23.3089 205.866 25.5103 205.866 28.619Z" fill="#1BB36E"/>
<path d="M236.22 16.498C235.01 16.498 233.341 17.0061 232.434 19.4313L228.611 30.0152L224.662 19.395C223.973 17.4717 222.697 16.498 220.876 16.498C220.365 16.4817 219.855 16.5691 219.378 16.755C218.901 16.9409 218.467 17.2214 218.101 17.5797C217.735 17.938 217.446 18.3666 217.25 18.8397C217.055 19.3128 216.957 19.8205 216.963 20.3324C216.993 20.9411 217.126 21.5403 217.356 22.1045L224.723 39.1596L224.68 39.2564C224.275 40.0426 224.076 40.1152 223.217 40.1152C222.859 40.106 222.505 40.0365 222.17 39.9096C221.753 39.7693 221.316 39.6998 220.876 39.7039C220.436 39.7046 219.999 39.7933 219.594 39.9648C219.188 40.1363 218.82 40.3872 218.513 40.7027C218.205 41.0182 217.964 41.3919 217.802 41.802C217.641 42.2121 217.564 42.6503 217.574 43.0908C217.574 43.8501 217.82 44.5889 218.274 45.1971C218.729 45.8053 219.368 46.2503 220.096 46.4655C221.279 46.89 222.529 47.0949 223.785 47.0703C227.801 47.0703 229.948 45.3225 231.98 40.4176L239.643 22.0198C239.866 21.4402 239.987 20.8263 240 20.2054C239.987 19.2135 239.582 18.267 238.874 17.5724C238.166 16.8778 237.212 16.4916 236.22 16.498Z" fill="#1BB36E"/>
<path d="M45.6195 27.2157C44.6818 25.9375 44.0798 24.4444 43.8684 22.8732C43.6571 21.3021 43.8433 19.703 44.41 18.2224C44.9801 16.674 45.2609 15.034 45.2385 13.3841C45.2733 11.7377 44.9715 10.1016 44.3517 8.576C43.7319 7.05038 42.8071 5.66739 41.634 4.51176C38.7068 1.56037 34.1527 0 28.5462 0H22.1354C17.7741 0 13.5914 1.73252 10.5075 4.81643C7.42363 7.90034 5.6911 12.083 5.6911 16.4443V18.8091L0 24.5002L5.6911 30.1913V32.556C5.69431 36.9152 7.42825 41.0948 10.5118 44.1761C13.5954 47.2574 17.7762 48.9883 22.1354 48.9882H29.0724C40.7933 48.9882 47.7787 43.7265 47.7787 34.7575C47.7787 31.7214 47.0952 29.2418 45.6195 27.2157ZM20.563 20.3392C19.7472 20.3392 18.9497 20.0973 18.2714 19.6441C17.5931 19.1908 17.0644 18.5466 16.7523 17.793C16.4401 17.0393 16.3584 16.2099 16.5175 15.4098C16.6767 14.6097 17.0695 13.8748 17.6464 13.2979C18.2232 12.7211 18.9582 12.3282 19.7583 12.1691C20.5584 12.0099 21.3877 12.0916 22.1414 12.4038C22.8951 12.716 23.5393 13.2446 23.9925 13.923C24.4457 14.6013 24.6877 15.3987 24.6877 16.2145C24.6877 17.3084 24.2531 18.3576 23.4796 19.1311C22.706 19.9046 21.6569 20.3392 20.563 20.3392Z" fill="#1BB36E"/>
<path d="M55.8765 16.499C54.8264 16.5006 53.8197 16.9185 53.0772 17.6611C52.3346 18.4036 51.9167 19.4103 51.9151 20.4604V36.6931C51.8943 37.2259 51.9813 37.7575 52.1708 38.2559C52.3603 38.7543 52.6486 39.2093 53.0182 39.5937C53.3878 39.9781 53.8312 40.2838 54.3219 40.4927C54.8125 40.7016 55.3403 40.8092 55.8735 40.8092C56.4068 40.8092 56.9345 40.7016 57.4251 40.4927C57.9158 40.2838 58.3592 39.9781 58.7288 39.5937C59.0984 39.2093 59.3867 38.7543 59.5762 38.2559C59.7657 37.7575 59.8527 37.2259 59.8319 36.6931V20.4604C59.8319 19.4108 59.4153 18.4042 58.6737 17.6614C57.9322 16.9187 56.9261 16.5006 55.8765 16.499Z" fill="#1BB36E"/>
<path d="M75.3084 16.4983C73.9536 16.4983 72.6533 17.3208 71.5708 18.8207C71.1981 17.9957 70.5536 17.3235 69.7451 16.9164C68.9366 16.5093 68.0128 16.3918 67.1281 16.5836C66.2434 16.7754 65.4513 17.2649 64.8839 17.9703C64.3166 18.6757 64.0084 19.5544 64.0108 20.4597V36.6923C63.99 37.2252 64.077 37.7567 64.2665 38.2552C64.4561 38.7536 64.7443 39.2086 65.1139 39.593C65.4835 39.9773 65.9269 40.2831 66.4176 40.492C66.9082 40.7008 67.436 40.8085 67.9692 40.8085C68.5025 40.8085 69.0302 40.7008 69.5208 40.492C70.0115 40.2831 70.4549 39.9773 70.8245 39.593C71.1942 39.2086 71.4824 38.7536 71.6719 38.2552C71.8615 37.7567 71.9484 37.2252 71.9276 36.6923V30.8742C71.9276 26.9915 73.3247 24.7779 76.1611 24.1066C77.0249 23.9424 77.8026 23.4775 78.3562 22.7943C78.9097 22.1112 79.2034 21.2541 79.1851 20.375C79.215 19.8581 79.1351 19.3407 78.9509 18.8569C78.7666 18.373 78.4821 17.9335 78.116 17.5674C77.7499 17.2013 77.3104 16.9168 76.8265 16.7325C76.3427 16.5483 75.8253 16.4684 75.3084 16.4983Z" fill="#1BB36E"/>
<path d="M100.559 8.5459C99.5097 8.5491 98.5046 8.96767 97.7633 9.71006C97.0221 10.4524 96.605 11.4582 96.6034 12.5073V18.4282C94.9184 17.0305 92.7867 16.2856 90.5979 16.3296C85.2091 16.3296 79.7539 20.5208 79.7539 28.6129C79.7539 36.7051 85.197 40.8116 90.5979 40.8116C91.7709 40.8403 92.9375 40.6305 94.027 40.1949C95.1165 39.7593 96.1062 39.107 96.9361 38.2775C97.2985 39.1133 97.9383 39.7983 98.7474 40.2169C99.5565 40.6354 100.485 40.7619 101.377 40.5749C102.268 40.3879 103.068 39.899 103.641 39.1906C104.213 38.4822 104.524 37.5979 104.52 36.6869V12.4952C104.515 11.4472 104.096 10.4436 103.354 9.70364C102.612 8.9637 101.607 8.54749 100.559 8.5459ZM96.6881 28.619C96.6881 31.643 94.8012 33.8444 92.2006 33.8444C89.5999 33.8444 87.6948 31.643 87.6948 28.619V28.5343C87.6948 25.5103 89.5999 23.3089 92.2247 23.3089C94.8496 23.3089 96.6881 25.5103 96.6881 28.619Z" fill="#1BB36E"/>
<path d="M55.8766 6.40527C55.0609 6.40527 54.2634 6.64718 53.5851 7.10041C52.9068 7.55364 52.3781 8.19782 52.0659 8.95151C51.7537 9.7052 51.6721 10.5345 51.8312 11.3347C51.9904 12.1348 52.3832 12.8697 52.9601 13.4466C53.5369 14.0234 54.2718 14.4162 55.072 14.5754C55.8721 14.7345 56.7014 14.6529 57.4551 14.3407C58.2088 14.0285 58.853 13.4998 59.3062 12.8215C59.7594 12.1432 60.0013 11.3457 60.0013 10.53C60.0013 9.9883 59.8946 9.45194 59.6874 8.95151C59.4801 8.45108 59.1763 7.99638 58.7932 7.61337C58.4102 7.23035 57.9555 6.92653 57.4551 6.71925C56.9547 6.51196 56.4183 6.40527 55.8766 6.40527Z" fill="#1BB36E"/>
</svg>